<?xml version="1.0" encoding="UTF-8" standalone="no"?>
<!-- Created with Inkscape (http://www.inkscape.org/) -->

<svg
   version="1.1"
   id="svg2"
   xml:space="preserve"
   width="474.67068"
   height="330.21332"
   viewBox="0 0 474.67068 330.21332"
   sodipodi:docname="PCV_VCV.svg"
   inkscape:version="1.1.1 (3bf5ae0d25, 2021-09-20)"
   xmlns:inkscape="http://www.inkscape.org/namespaces/inkscape"
   xmlns:sodipodi="http://sodipodi.sourceforge.net/DTD/sodipodi-0.dtd"
   xmlns="http://www.w3.org/2000/svg"
   xmlns:svg="http://www.w3.org/2000/svg"><defs
     id="defs6"><clipPath
       clipPathUnits="userSpaceOnUse"
       id="clipPath40"><path
         d="M 0,247.66 H 356.003 V 0 H 0 Z"
         id="path38" /></clipPath><clipPath
       clipPathUnits="userSpaceOnUse"
       id="clipPath106"><path
         d="M 0,247.66 H 356.003 V 0 H 0 Z"
         id="path104" /></clipPath><clipPath
       clipPathUnits="userSpaceOnUse"
       id="clipPath198"><path
         d="M 0,247.66 H 356.003 V 0 H 0 Z"
         id="path196" /></clipPath></defs><sodipodi:namedview
     id="namedview4"
     pagecolor="#ffffff"
     bordercolor="#666666"
     borderopacity="1.0"
     inkscape:pageshadow="2"
     inkscape:pageopacity="0.0"
     inkscape:pagecheckerboard="0"
     showgrid="false"
     inkscape:zoom="2.2752616"
     inkscape:cx="210.74499"
     inkscape:cy="165.03596"
     inkscape:window-width="1920"
     inkscape:window-height="1009"
     inkscape:window-x="-8"
     inkscape:window-y="-8"
     inkscape:window-maximized="1"
     inkscape:current-layer="g8" /><g
     id="g8"
     inkscape:groupmode="layer"
     inkscape:label="PCV_VCV"
     transform="matrix(1.3333333,0,0,-1.3333333,0,330.21333)"><g
       id="g10"
       transform="translate(167.5773,174.8086)"><path
         d="M 0,0 H 1"
         style="fill:none;stroke:#231f20;stroke-width:0.5;stroke-linecap:butt;stroke-linejoin:miter;stroke-miterlimit:10;stroke-dasharray:none;stroke-opacity:1"
         id="path12" /></g><g
       id="g14"
       transform="translate(170.3561,174.8086)"><path
         d="M 0,0 H 6.226"
         style="fill:none;stroke:#231f20;stroke-width:0.5;stroke-linecap:butt;stroke-linejoin:miter;stroke-miterlimit:10;stroke-dasharray:1.779, 1.779;stroke-dashoffset:0;stroke-opacity:1"
         id="path16" /></g><g
       id="g18"
       transform="translate(177.4709,174.8086)"><path
         d="M 0,0 H 1"
         style="fill:none;stroke:#231f20;stroke-width:0.5;stroke-linecap:butt;stroke-linejoin:miter;stroke-miterlimit:10;stroke-dasharray:none;stroke-opacity:1"
         id="path20" /></g><g
       id="g22"
       transform="translate(167.5773,107.7446)"><path
         d="M 0,0 H 1"
         style="fill:none;stroke:#231f20;stroke-width:0.5;stroke-linecap:butt;stroke-linejoin:miter;stroke-miterlimit:10;stroke-dasharray:none;stroke-opacity:1"
         id="path24" /></g><g
       id="g26"
       transform="translate(170.3561,107.7446)"><path
         d="M 0,0 H 6.226"
         style="fill:none;stroke:#231f20;stroke-width:0.5;stroke-linecap:butt;stroke-linejoin:miter;stroke-miterlimit:10;stroke-dasharray:1.779, 1.779;stroke-dashoffset:0;stroke-opacity:1"
         id="path28" /></g><g
       id="g30"
       transform="translate(177.4709,107.7446)"><path
         d="M 0,0 H 1"
         style="fill:none;stroke:#231f20;stroke-width:0.5;stroke-linecap:butt;stroke-linejoin:miter;stroke-miterlimit:10;stroke-dasharray:none;stroke-opacity:1"
         id="path32" /></g><g
       id="g34"><g
         id="g36"
         clip-path="url(#clipPath40)"><g
           id="g42"
           transform="translate(107.3219,174.8086)"><path
             d="m 0,0 c -2.469,0.311 -8.714,3.144 -13.9,8.17 -3.59,3.478 -4.579,4.915 -7.038,20.766 -1.033,6.662 -1.303,15.489 -1.303,19.064 L -60.815,0 Z"
             style="fill:#1ea6e6;fill-opacity:1;fill-rule:nonzero;stroke:none"
             id="path44" /></g><g
           id="g46"
           transform="translate(107.3219,174.8086)"><path
             d="m 0,0 c -2.469,0.311 -8.714,3.144 -13.9,8.17 -3.59,3.478 -4.579,4.915 -7.038,20.766 -1.033,6.662 -1.303,15.489 -1.303,19.064 L -60.815,0 Z"
             style="fill:none;stroke:#231f20;stroke-width:0.25;stroke-linecap:butt;stroke-linejoin:miter;stroke-miterlimit:10;stroke-dasharray:none;stroke-opacity:1"
             id="path48" /></g><path
           d="M 229.978,174.809 H 192.19 v 48 h 37.788 z"
           style="fill:#1ea6e6;fill-opacity:1;fill-rule:nonzero;stroke:#231f20;stroke-width:0.25;stroke-linecap:butt;stroke-linejoin:miter;stroke-miterlimit:10;stroke-dasharray:none;stroke-opacity:1"
           id="path50" /><path
           d="M 85.194,107.745 H 46.506 v 29.617 h 38.688 z"
           style="fill:#ba4c28;fill-opacity:1;fill-rule:nonzero;stroke:#231f20;stroke-width:0.25;stroke-linecap:butt;stroke-linejoin:miter;stroke-miterlimit:10;stroke-dasharray:none;stroke-opacity:1"
           id="path52" /><g
           id="g54"
           transform="translate(161.4494,107.7446)"><path
             d="m 0,0 c -11.865,-1.847 -29.233,-5.764 -35.063,-7.187 -5.447,-1.329 -12.852,-3.917 -23.447,-8.66 -11.712,-5.242 -12.894,-6.36 -17.745,-10.025 l 0,25.872 z"
             style="fill:#ba4c28;fill-opacity:1;fill-rule:nonzero;stroke:none"
             id="path56" /></g><g
           id="g58"
           transform="translate(161.4494,107.7446)"><path
             d="m 0,0 c -11.865,-1.847 -29.233,-5.764 -35.063,-7.187 -5.447,-1.329 -12.852,-3.917 -23.447,-8.66 -11.712,-5.242 -12.894,-6.36 -17.745,-10.025 l 0,25.872 z"
             style="fill:none;stroke:#231f20;stroke-width:0.25;stroke-linecap:butt;stroke-linejoin:miter;stroke-miterlimit:10;stroke-dasharray:none;stroke-opacity:1"
             id="path60" /></g><g
           id="g62"
           transform="translate(306.2326,107.7446)"><path
             d="m 0,0 c -11.865,-1.847 -29.233,-5.764 -35.063,-7.187 -5.447,-1.329 -12.852,-3.917 -23.447,-8.66 -11.712,-5.242 -12.894,-6.36 -17.745,-10.025 l 0,25.872 z"
             style="fill:#ba4c28;fill-opacity:1;fill-rule:nonzero;stroke:none"
             id="path64" /></g><g
           id="g66"
           transform="translate(306.2326,107.7446)"><path
             d="m 0,0 c -11.865,-1.847 -29.233,-5.764 -35.063,-7.187 -5.447,-1.329 -12.852,-3.917 -23.447,-8.66 -11.712,-5.242 -12.894,-6.36 -17.745,-10.025 l 0,25.872 z"
             style="fill:none;stroke:#231f20;stroke-width:0.25;stroke-linecap:butt;stroke-linejoin:miter;stroke-miterlimit:10;stroke-dasharray:none;stroke-opacity:1"
             id="path68" /></g><g
           id="g70"
           transform="translate(230.9987,107.7446)"><path
             d="m 0,0 c -3.777,0.145 -8.029,0.627 -12.596,1.702 -4.874,1.148 -7.89,1.858 -11.234,4.085 -3.445,2.295 -5.253,4.879 -8.51,9.532 -1.862,2.66 -4.225,6.413 -6.469,11.234 V 0 Z"
             style="fill:#ba4b2c;fill-opacity:1;fill-rule:nonzero;stroke:none"
             id="path72" /></g><g
           id="g74"
           transform="translate(230.9987,107.7446)"><path
             d="m 0,0 c -3.777,0.145 -8.029,0.627 -12.596,1.702 -4.874,1.148 -7.89,1.858 -11.234,4.085 -3.445,2.295 -5.253,4.879 -8.51,9.532 -1.862,2.66 -4.225,6.413 -6.469,11.234 V 0 Z"
             style="fill:none;stroke:#231f20;stroke-width:0.25;stroke-linecap:butt;stroke-linejoin:miter;stroke-miterlimit:10;stroke-dasharray:none;stroke-opacity:1"
             id="path76" /></g></g></g><text
       transform="matrix(1,0,0,-1,20.2646,104)"
       style="font-variant:normal;font-weight:normal;font-stretch:normal;font-size:8px;font-family:'Myriad Pro';-inkscape-font-specification:MyriadPro-Regular;writing-mode:lr-tb;fill:#231f20;fill-opacity:1;fill-rule:nonzero;stroke:none"
       id="text82"><tspan
         x="0"
         y="0"
         id="tspan78">0</tspan><tspan
         sodipodi:role="line"
         id="tspan80"
         x="0"
         y="10" /></text><text
       transform="scale(1,-1)"
       style="font-variant:normal;font-weight:normal;font-stretch:normal;font-size:10px;font-family:'Myriad Pro';-inkscape-font-specification:MyriadPro-Regular;writing-mode:lr-tb;fill:#231f20;fill-opacity:1;fill-rule:nonzero;stroke:none"
       id="text88"
       x="74.645737"
       y="-237.64702"><tspan
         sodipodi:role="line"
         id="tspan84"
         x="74.645737"
         y="-237.64702">\textbf{VCV}</tspan><tspan
         sodipodi:role="line"
         id="tspan86"
         x="74.645737"
         y="-225.14702" /></text><text
       transform="matrix(0.03083748,0.99952441,0.99952441,-0.03083748,0,0)"
       style="font-variant:normal;font-weight:normal;font-stretch:normal;font-size:8px;font-family:'Myriad Pro';-inkscape-font-specification:MyriadPro-Regular;writing-mode:lr-tb;fill:#231f20;fill-opacity:1;fill-rule:nonzero;stroke:none"
       id="text92"
       x="189.54718"
       y="16.071005"><tspan
         x="189.54718"
         y="16.071005"
         sodipodi:role="line"
         id="tspan90">\tiny{Pressure}</tspan></text><text
       transform="matrix(0,1,1,0,0,0)"
       style="font-variant:normal;font-weight:normal;font-stretch:normal;font-size:8px;font-family:'Myriad Pro';-inkscape-font-specification:MyriadPro-Regular;writing-mode:lr-tb;fill:#231f20;fill-opacity:1;fill-rule:nonzero;stroke:none"
       id="text98"
       x="117.01841"
       y="22.856361"><tspan
         x="117.01841"
         sodipodi:role="line"
         id="tspan94"
         y="22.856361">\tiny{Flow}</tspan><tspan
         sodipodi:role="line"
         id="tspan96"
         x="117.01841"
         y="32.856361" /></text><g
       id="g100"><g
         id="g102"
         clip-path="url(#clipPath106)"><g
           id="g108"
           transform="translate(161.4494,24)"><path
             d="m 0,0 c -11.865,3.128 -29.233,9.762 -35.063,12.172 -5.447,2.252 -12.852,6.634 -23.447,14.668 -11.712,8.879 -17.745,16.98 -17.745,16.98 l 0,-43.82 z"
             style="fill:#f6d95d;fill-opacity:1;fill-rule:nonzero;stroke:none"
             id="path110" /></g><g
           id="g112"
           transform="translate(161.4494,24)"><path
             d="m 0,0 c -11.865,3.128 -29.233,9.762 -35.063,12.172 -5.447,2.252 -12.852,6.634 -23.447,14.668 -11.712,8.879 -17.745,16.98 -17.745,16.98 l 0,-43.82 z"
             style="fill:none;stroke:#231f20;stroke-width:0.25;stroke-linecap:butt;stroke-linejoin:miter;stroke-miterlimit:10;stroke-dasharray:none;stroke-opacity:1"
             id="path114" /></g><g
           id="g116"
           transform="translate(85.1945,67.8203)"><path
             d="M 0,0 -38.688,-43.82 H 0"
             style="fill:#f6d95d;fill-opacity:1;fill-rule:nonzero;stroke:#231f20;stroke-width:0.25;stroke-linecap:butt;stroke-linejoin:miter;stroke-miterlimit:10;stroke-dasharray:none;stroke-opacity:1"
             id="path118" /></g><g
           id="g120"
           transform="translate(192.1901,23.8677)"><path
             d="m 0,0 c 2.179,4.03 4.079,7.703 5.304,10.169 3.642,7.333 4.311,9.329 7.646,14.904 1.483,2.478 3.167,4.664 6.907,8.273 3.889,3.754 6.157,5.261 8.756,6.873 2.293,1.421 5.47,2.924 9.661,3.734 -0.074,-3.127 0.184,-8.204 2.303,-13.916 0.987,-2.662 3.808,-10.265 10.853,-15.273 3.038,-2.16 3.217,-3.106 19.117,-7.297 9.992,-2.634 10.266,-1.482 16.075,-2.885 7.854,-1.898 14.681,-3.187 20.061,-4.073"
             style="fill:#f6d95d;fill-opacity:1;fill-rule:nonzero;stroke:#231f20;stroke-width:0.25;stroke-linecap:butt;stroke-linejoin:miter;stroke-miterlimit:10;stroke-dasharray:none;stroke-opacity:1"
             id="path122" /></g><g
           id="g124"
           transform="translate(46.5065,223.8296)"><path
             d="M 0,0 V -1"
             style="fill:none;stroke:#231f20;stroke-width:0.25;stroke-linecap:butt;stroke-linejoin:miter;stroke-miterlimit:10;stroke-dasharray:none;stroke-opacity:1"
             id="path126" /></g><g
           id="g128"
           transform="translate(46.5065,220.8442)"><path
             d="M 0,0 V -197.575"
             style="fill:none;stroke:#231f20;stroke-width:0.25;stroke-linecap:butt;stroke-linejoin:miter;stroke-miterlimit:10;stroke-dasharray:1.986, 1.986;stroke-dashoffset:0;stroke-opacity:1"
             id="path130" /></g><g
           id="g132"
           transform="translate(46.5065,22.2764)"><path
             d="M 0,0 V -1"
             style="fill:none;stroke:#231f20;stroke-width:0.25;stroke-linecap:butt;stroke-linejoin:miter;stroke-miterlimit:10;stroke-dasharray:none;stroke-opacity:1"
             id="path134" /></g><g
           id="g136"
           transform="translate(85.1945,223.8296)"><path
             d="M 0,0 V -1"
             style="fill:none;stroke:#231f20;stroke-width:0.25;stroke-linecap:butt;stroke-linejoin:miter;stroke-miterlimit:10;stroke-dasharray:none;stroke-opacity:1"
             id="path138" /></g><g
           id="g140"
           transform="translate(85.1945,220.8442)"><path
             d="M 0,0 V -197.575"
             style="fill:none;stroke:#231f20;stroke-width:0.25;stroke-linecap:butt;stroke-linejoin:miter;stroke-miterlimit:10;stroke-dasharray:1.986, 1.986;stroke-dashoffset:0;stroke-opacity:1"
             id="path142" /></g><g
           id="g144"
           transform="translate(85.1945,22.2764)"><path
             d="M 0,0 V -1"
             style="fill:none;stroke:#231f20;stroke-width:0.25;stroke-linecap:butt;stroke-linejoin:miter;stroke-miterlimit:10;stroke-dasharray:none;stroke-opacity:1"
             id="path146" /></g><g
           id="g148"
           transform="translate(192.1901,223.8296)"><path
             d="M 0,0 V -1"
             style="fill:none;stroke:#231f20;stroke-width:0.25;stroke-linecap:butt;stroke-linejoin:miter;stroke-miterlimit:10;stroke-dasharray:none;stroke-opacity:1"
             id="path150" /></g><g
           id="g152"
           transform="translate(192.1901,220.8442)"><path
             d="M 0,0 V -197.575"
             style="fill:none;stroke:#231f20;stroke-width:0.25;stroke-linecap:butt;stroke-linejoin:miter;stroke-miterlimit:10;stroke-dasharray:1.986, 1.986;stroke-dashoffset:0;stroke-opacity:1"
             id="path154" /></g><g
           id="g156"
           transform="translate(192.1901,22.2764)"><path
             d="M 0,0 V -1"
             style="fill:none;stroke:#231f20;stroke-width:0.25;stroke-linecap:butt;stroke-linejoin:miter;stroke-miterlimit:10;stroke-dasharray:none;stroke-opacity:1"
             id="path158" /></g><g
           id="g160"
           transform="translate(229.9777,223.8296)"><path
             d="M 0,0 V -1"
             style="fill:none;stroke:#231f20;stroke-width:0.25;stroke-linecap:butt;stroke-linejoin:miter;stroke-miterlimit:10;stroke-dasharray:none;stroke-opacity:1"
             id="path162" /></g><g
           id="g164"
           transform="translate(229.9777,220.8442)"><path
             d="M 0,0 V -197.575"
             style="fill:none;stroke:#231f20;stroke-width:0.25;stroke-linecap:butt;stroke-linejoin:miter;stroke-miterlimit:10;stroke-dasharray:1.986, 1.986;stroke-dashoffset:0;stroke-opacity:1"
             id="path166" /></g><g
           id="g168"
           transform="translate(229.9777,22.2764)"><path
             d="M 0,0 V -1"
             style="fill:none;stroke:#231f20;stroke-width:0.25;stroke-linecap:butt;stroke-linejoin:miter;stroke-miterlimit:10;stroke-dasharray:none;stroke-opacity:1"
             id="path170" /></g></g></g><g
       id="g192"
       style="stroke-width:0.99975002;stroke-miterlimit:4;stroke-dasharray:none"><g
         id="g194"
         clip-path="url(#clipPath198)"
         style="stroke-width:0.99975002;stroke-miterlimit:4;stroke-dasharray:none"><g
           id="g200"
           transform="translate(37.1945,230.6519)"
           style="stroke-width:0.99975002;stroke-miterlimit:4;stroke-dasharray:none"><path
             d="M 0,0 V -211.758"
             style="fill:none;stroke:#231f20;stroke-width:0.99975002;stroke-linecap:butt;stroke-linejoin:miter;stroke-miterlimit:4;stroke-dasharray:none;stroke-opacity:1"
             id="path202" /></g><g
           id="g204"
           transform="translate(37.1945,229.3057)"
           style="stroke-width:0.99975002;stroke-miterlimit:4;stroke-dasharray:none"><path
             d="m 0,0 2.702,-1.644 0.061,0.093 -1.75,4.406 C 0.675,4.39 0.338,5.925 0,7.46 -0.338,5.925 -0.675,4.39 -1.014,2.855 l -1.75,-4.406 0.047,-0.093 z"
             style="fill:#231f20;fill-opacity:1;fill-rule:nonzero;stroke:none;stroke-width:0.99975002;stroke-miterlimit:4;stroke-dasharray:none"
             id="path206" /></g><g
           id="g208"
           transform="translate(30.0456,24)"
           style="stroke-width:0.99975002;stroke-miterlimit:4;stroke-dasharray:none"><path
             d="M 0,0 H 316.609"
             style="fill:none;stroke:#231f20;stroke-width:0.99975002;stroke-linecap:butt;stroke-linejoin:miter;stroke-miterlimit:4;stroke-dasharray:none;stroke-opacity:1"
             id="path210" /></g><g
           id="g212"
           transform="translate(345.3087,24)"
           style="stroke-width:0.99975002;stroke-miterlimit:4;stroke-dasharray:none"><path
             d="M 0,0 -1.644,2.702 -1.552,2.764 2.854,1.013 C 4.39,0.676 5.925,0.338 7.46,0 5.925,-0.338 4.39,-0.675 2.854,-1.013 l -4.406,-1.751 -0.092,0.047 z"
             style="fill:#231f20;fill-opacity:1;fill-rule:nonzero;stroke:none;stroke-width:0.99975002;stroke-miterlimit:4;stroke-dasharray:none"
             id="path214" /></g><g
           id="g216"
           transform="translate(178.4709,174.8086)"
           style="stroke-width:0.99975002;stroke-miterlimit:4;stroke-dasharray:none"><path
             d="M 0,0 H 119.149"
             style="fill:none;stroke:#231f20;stroke-width:0.99975002;stroke-linecap:butt;stroke-linejoin:miter;stroke-miterlimit:4;stroke-dasharray:none;stroke-opacity:1"
             id="path218" /></g><g
           id="g220"
           transform="translate(32.7687,174.8086)"
           style="stroke-width:0.99975002;stroke-miterlimit:4;stroke-dasharray:none"><path
             d="M 0,0 H 134.809"
             style="fill:none;stroke:#231f20;stroke-width:0.99975002;stroke-linecap:butt;stroke-linejoin:miter;stroke-miterlimit:4;stroke-dasharray:none;stroke-opacity:1"
             id="path222" /></g><g
           id="g224"
           transform="translate(178.4709,107.7446)"
           style="stroke-width:0.99975002;stroke-miterlimit:4;stroke-dasharray:none"><path
             d="M 0,0 H 119.149"
             style="fill:none;stroke:#231f20;stroke-width:0.99975002;stroke-linecap:butt;stroke-linejoin:miter;stroke-miterlimit:4;stroke-dasharray:none;stroke-opacity:1"
             id="path226" /></g><g
           id="g228"
           transform="translate(32.7687,107.7446)"
           style="stroke-width:0.99975002;stroke-miterlimit:4;stroke-dasharray:none"><path
             d="M 0,0 H 134.809"
             style="fill:none;stroke:#231f20;stroke-width:0.99975002;stroke-linecap:butt;stroke-linejoin:miter;stroke-miterlimit:4;stroke-dasharray:none;stroke-opacity:1"
             id="path230" /></g></g></g><text
       xml:space="preserve"
       style="font-size:12px;line-height:1.25;font-family:sans-serif;stroke-width:0.75"
       x="-14.833459"
       y="-171.18529"
       id="text1863"
       transform="scale(1,-1)"><tspan
         sodipodi:role="line"
         id="tspan1861"
         style="stroke-width:0.75"
         x="-14.833459"
         y="-171.18529">$\mathrm{PEEP}$</tspan></text><text
       xml:space="preserve"
       style="font-size:12px;line-height:1.25;font-family:sans-serif;stroke-width:0.75"
       x="43.210087"
       y="-4.5913773"
       id="text12511"
       transform="scale(1,-1)"><tspan
         sodipodi:role="line"
         id="tspan12509"
         style="stroke-width:0.75"
         x="43.210087"
         y="-4.5913773">0</tspan></text><text
       xml:space="preserve"
       style="font-size:12px;line-height:1.25;font-family:sans-serif;stroke-width:0.75"
       x="79.852951"
       y="-5.5959687"
       id="text13439"
       transform="scale(1,-1)"><tspan
         sodipodi:role="line"
         id="tspan13437"
         style="stroke-width:0.75"
         x="79.852951"
         y="-5.5959687">$T_{insp}$</tspan></text><text
       xml:space="preserve"
       style="font-size:12px;line-height:1.25;font-family:sans-serif;stroke-width:0.75"
       x="188.90762"
       y="-5.5802751"
       id="text12511-1"
       transform="scale(1,-1)"><tspan
         sodipodi:role="line"
         id="tspan12509-9"
         style="stroke-width:0.75"
         x="188.90762"
         y="-5.5802751">0</tspan></text><text
       xml:space="preserve"
       style="font-size:12px;line-height:1.25;font-family:sans-serif;stroke-width:0.75"
       x="225.55049"
       y="-6.5848665"
       id="text13439-9"
       transform="scale(1,-1)"><tspan
         sodipodi:role="line"
         id="tspan13437-4"
         style="stroke-width:0.75"
         x="225.55049"
         y="-6.5848665">$T_{insp}$</tspan></text><text
       xml:space="preserve"
       style="font-size:12px;line-height:1.25;font-family:sans-serif;stroke-width:0.75"
       x="35.228085"
       y="25.895424"
       id="text4474"
       transform="matrix(0,1,1,0,0,0)"><tspan
         sodipodi:role="line"
         id="tspan4472"
         style="stroke-width:0.75"
         x="35.228085"
         y="25.895424">\tiny{Volume}</tspan></text><text
       xml:space="preserve"
       style="font-size:12px;line-height:1.25;font-family:sans-serif;stroke-width:0.75"
       x="213.93143"
       y="-236.72816"
       id="text7487"
       transform="scale(1,-1)"><tspan
         sodipodi:role="line"
         id="tspan7485"
         style="stroke-width:0.75"
         x="213.93143"
         y="-236.72816">\textbf{PCV}</tspan></text></g></svg>
